<svg xmlns="http://www.w3.org/2000/svg" width="64" height="64" viewBox="0 0 64 64"><g fill="none" fill-rule="evenodd"><path d="M0 0h64v64H0z"/><path fill="#E0E0E0" fill-rule="nonzero" d="M21.299 48c-4.526 0-7.987 3.467-7.987 8 0 4.533 3.46 8 7.987 8 4.525 0 7.986-3.467 7.986-8 0-4.533-3.46-8-7.986-8zm0 10.667c-1.598 0-2.663-1.067-2.663-2.667 0-1.6 1.065-2.667 2.663-2.667 1.597 0 2.662 1.067 2.662 2.667 0 1.6-1.065 2.667-2.662 2.667zM53.246 48c-4.526 0-7.987 3.467-7.987 8 0 4.533 3.461 8 7.987 8s7.987-3.467 7.987-8c0-4.533-3.46-8-7.987-8zm0 10.667c-1.597 0-2.662-1.067-2.662-2.667 0-1.6 1.065-2.667 2.662-2.667 1.598 0 2.663 1.067 2.663 2.667 0 1.6-1.065 2.667-2.663 2.667zM23.428 45.333h28.487c3.727 0 7.188-2.666 7.72-6.4l4.26-22.4c.267-.8 0-1.6-.532-2.133-.532-.8-1.331-1.067-2.13-1.067H17.305l-.799-6.4C15.974 2.933 12.78 0 8.52 0H2.662C1.065 0 0 1.067 0 2.667c0 1.6 1.065 2.666 2.662 2.666H8.52c1.332 0 2.396 1.067 2.663 2.4L15.175 38.4c.799 4 3.994 6.933 8.253 6.933zm34.61-26.666l-3.727 19.2C54.045 39.2 52.981 40 51.65 40H23.162c-1.331 0-2.396-1.067-2.662-2.4l-2.396-18.933h39.934z"/></g></svg>